<svg width="31" height="31" viewBox="0 0 31 31" fill="none" xmlns="http://www.w3.org/2000/svg">
<path d="M16.6901 29.5929C18.5058 25.4369 19.4213 21.5597 19.7007 20.8522C19.7007 20.8522 25.8073 20.7106 29.419 19.7126C30.3219 19.4624 30.5115 18.9271 29.8637 18.3174C28.3481 16.8899 23.5433 13.8574 21.2783 12.3662C21.4077 11.4381 22.8461 5.06107 23.1408 1.1543C23.2234 0.0657467 22.2999 -0.274089 21.591 0.225353C20.7465 0.819842 17.2929 3.44707 13.4144 7.07498C11.8376 6.28591 9.68051 5.05569 2.56855 2.61766C1.72043 2.32714 0.905553 2.58717 1.51559 4.04694C2.5389 6.49573 4.61786 10.4814 6.07961 12.5554C6.07961 12.5554 1.8525 18.5128 0.558759 21.6565C0.0295839 22.9424 0.0834897 23.5162 1.43563 23.275C4.06713 22.807 8.90966 21.2952 10.9913 20.4765C12.0039 24.2129 13.7297 27.4849 14.753 29.2656C15.6164 30.7694 16.2301 30.6465 16.6901 29.5929Z" fill="#FF703E"/>
<path d="M20.9073 5.98221C20.6108 5.42359 19.7402 5.88268 20.0376 6.4422C20.3341 7.00082 21.2046 6.54173 20.9073 5.98221Z" fill="white"/>
<path d="M16.9502 16.1111C16.6528 15.5525 15.7822 16.0116 16.0796 16.5711C16.377 17.1297 17.2475 16.6706 16.9502 16.1111Z" fill="white"/>
<path d="M26.4218 17.0642C26.1245 16.5056 25.2539 16.9647 25.5513 17.5242C25.8486 18.0829 26.7192 17.6238 26.4218 17.0642Z" fill="white"/>
<path d="M13.9287 18.982C13.6323 18.4234 12.7617 18.8834 13.0591 19.442C13.3555 20.0015 14.2261 19.5415 13.9287 18.982Z" fill="white"/>
<path d="M8.22051 14.7218C7.80544 13.9408 6.58717 14.5828 7.00314 15.3656C7.41822 16.1475 8.63649 15.5046 8.22051 14.7218Z" fill="white"/>
<path d="M2.95255 21.6374C2.60665 20.9864 1.59053 21.5217 1.93732 22.1736C2.28411 22.8254 3.29934 22.2901 2.95255 21.6374Z" fill="white"/>
<path d="M8.04813 10.1259C7.59712 9.2768 6.27463 9.97441 6.72654 10.8244C7.17755 11.6736 8.50004 10.976 8.04813 10.1259Z" fill="white"/>
<path d="M19.6584 8.92477C19.2073 8.07563 17.884 8.77323 18.3359 9.62327C18.7869 10.4724 20.1094 9.77481 19.6584 8.92477Z" fill="white"/>
<path d="M5.00199 17.5482C4.70551 16.9905 3.83493 17.4487 4.13231 18.0091C4.42879 18.5668 5.29937 18.1077 5.00199 17.5482Z" fill="white"/>
<path d="M9.74014 17.8787C9.44366 17.3201 8.57218 17.7792 8.86956 18.3387C9.16605 18.8973 10.0375 18.4382 9.74014 17.8787Z" fill="white"/>
<path d="M17.1797 5.72244C16.8832 5.16382 16.0127 5.62291 16.31 6.18243C16.6065 6.74106 17.4771 6.28196 17.1797 5.72244Z" fill="white"/>
<path d="M3.57924 3.69901C3.28186 3.14038 2.41128 3.59948 2.70866 4.159C3.00514 4.71762 3.87662 4.25853 3.57924 3.69901Z" fill="white"/>
<path d="M8.3184 5.86112C8.02191 5.30249 7.15134 5.76159 7.44872 6.32111C7.7452 6.87973 8.61578 6.42064 8.3184 5.86112Z" fill="white"/>
<path d="M14.6036 12.5974C14.3071 12.0388 13.4365 12.4979 13.7339 13.0574C14.0304 13.6161 14.9009 13.157 14.6036 12.5974Z" fill="white"/>
<path d="M10.4112 12.342C10.1147 11.7825 9.24411 12.2425 9.54149 12.8011C9.83797 13.3606 10.7085 12.9015 10.4112 12.342Z" fill="white"/>
<path d="M19.0928 18.8455C18.7963 18.2869 17.9257 18.746 18.2231 19.3055C18.5196 19.8641 19.3902 19.405 19.0928 18.8455Z" fill="white"/>
<path d="M16.7565 25.2205C16.3774 24.5067 15.2651 25.094 15.6451 25.8087C16.0243 26.5224 17.1365 25.9351 16.7565 25.2205Z" fill="white"/>
<path d="M10.6296 7.44021L10.4849 7.51642C9.36548 8.10822 10.2855 9.84596 11.4076 9.25237L11.5523 9.17615C12.6726 8.58346 11.7517 6.84661 10.6296 7.44021Z" fill="white"/>
<path d="M22.335 17.3179C21.7411 16.2007 19.9999 17.1189 20.5947 18.2379C21.1877 19.3552 22.9297 18.437 22.335 17.3179Z" fill="white"/>
<path d="M22.335 2.27106C21.7411 1.15382 19.9999 2.072 20.5947 3.19104C21.1877 4.30828 22.9297 3.3901 22.335 2.27106Z" fill="white"/>
<path d="M14.4517 22.4117C13.8579 21.2944 12.1167 22.2126 12.7106 23.3317C13.3044 24.4489 15.0456 23.5307 14.4517 22.4117Z" fill="white"/>
<path d="M13.1102 15.0914C12.5164 13.9741 10.7743 14.8923 11.3691 16.0114C11.9629 17.1286 13.7041 16.2104 13.1102 15.0914Z" fill="white"/>
<path d="M4.4629 6.07493L4.31735 6.15114C3.19701 6.74384 4.1179 8.48068 5.24004 7.88798L5.38468 7.81087C6.50503 7.21907 5.58414 5.48133 4.4629 6.07493Z" fill="white"/>
<path d="M6.71386 20.4775C6.12 19.3611 4.37884 20.2793 4.9736 21.3984C5.56656 22.5147 7.30862 21.5965 6.71386 20.4775Z" fill="white"/>
<path d="M15.8963 9.04841C15.3025 7.93116 13.5604 8.84935 14.1552 9.96838C14.7491 11.0856 16.4902 10.1665 15.8963 9.04841Z" fill="white"/>
<path d="M19.8669 13.2047C19.2739 12.0874 17.5327 13.0056 18.1266 14.1246C18.7205 15.241 20.4616 14.3237 19.8669 13.2047Z" fill="white"/>
<path d="M18.6073 21.1419C18.0135 20.0247 16.2723 20.9438 16.8671 22.0628C17.4609 23.1792 19.2021 22.261 18.6073 21.1419Z" fill="white"/>
</svg>
